<?xml version="1.0" encoding="UTF-8" standalone="no"?>
<!-- Created with Inkscape (http://www.inkscape.org/) -->

<svg
   width="210mm"
   height="297mm"
   viewBox="0 0 210 297"
   version="1.1"
   id="svg1"
   sodipodi:docname="mlt.svg"
   inkscape:version="1.3 (0e150ed6c4, 2023-07-21)"
   inkscape:export-filename="mlt.svg"
   inkscape:export-xdpi="96"
   inkscape:export-ydpi="96"
   xmlns:inkscape="http://www.inkscape.org/namespaces/inkscape"
   xmlns:sodipodi="http://sodipodi.sourceforge.net/DTD/sodipodi-0.dtd"
   xmlns="http://www.w3.org/2000/svg"
   xmlns:svg="http://www.w3.org/2000/svg">
  <sodipodi:namedview
     id="namedview1"
     pagecolor="#ffffff"
     bordercolor="#000000"
     borderopacity="0.25"
     inkscape:showpageshadow="2"
     inkscape:pageopacity="0.0"
     inkscape:pagecheckerboard="0"
     inkscape:deskcolor="#d1d1d1"
     inkscape:document-units="mm"
     inkscape:zoom="0.65566779"
     inkscape:cx="397.30486"
     inkscape:cy="560.49726"
     inkscape:window-width="1288"
     inkscape:window-height="991"
     inkscape:window-x="553"
     inkscape:window-y="0"
     inkscape:window-maximized="0"
     inkscape:current-layer="layer1" />
  <defs
     id="defs1" />
  <g
     inkscape:label="Layer 1"
     inkscape:groupmode="layer"
     id="layer1">
    <text
       xml:space="preserve"
       style="font-size:3.175px;fill:#000000;stroke-width:0.264583"
       x="19.246506"
       y="98.496819"
       id="text6"><tspan
         sodipodi:role="line"
         id="tspan6"
         style="stroke-width:0.264583"
         x="19.246506"
         y="98.496819" /></text>
    <text
       xml:space="preserve"
       style="font-size:3.175px;fill:#000000;stroke-width:0.264583"
       x="129.0648"
       y="55.097839"
       id="text7"><tspan
         sodipodi:role="line"
         id="tspan7"
         style="stroke-width:0.264583"
         x="129.0648"
         y="55.097839" /></text>
    <path
       id="text10"
       style="font-weight:bold;font-size:27.0752px;font-family:'Berlin Sans FB';-inkscape-font-specification:'Berlin Sans FB, Bold';letter-spacing:0.100542px;word-spacing:0.0105833px;fill:#1a1a1a;stroke-width:2.25626"
       inkscape:transform-center-x="-3.3965392"
       inkscape:transform-center-y="37.340416"
       d="m 86.337501,125.0199 q -0.228569,0.3078 -0.578829,0.0477 -0.413944,-0.30739 -1.220919,-0.9725 -0.796362,-0.65722 -1.220919,-0.97249 -0.413944,-0.30739 -1.294587,-0.89546 -0.870028,-0.5802 -1.283972,-0.88759 -0.329033,-0.24433 -0.03741,-0.63704 0.528072,-0.71114 1.655782,-2.09673 1.135591,-1.39621 1.663663,-2.10734 0.228568,-0.30781 0.164885,-0.3551 -0.201665,-0.14975 -3.344767,1.66586 -3.132488,1.8235 -3.344767,1.66586 -0.297191,-0.22068 0.58514,-3.71509 0.882331,-3.49441 0.670052,-3.65204 -0.06368,-0.0473 -0.292252,0.26051 -0.528072,0.71114 -1.536296,2.20192 -1.000342,1.48018 -1.528414,2.19131 -0.291622,0.39272 -0.61004,0.15627 -0.424558,-0.31527 -1.231533,-0.98038 -0.806975,-0.66511 -1.231533,-0.98037 -0.413944,-0.30739 -1.283973,-0.88758 -0.859414,-0.57232 -1.273358,-0.8797 -0.350261,-0.2601 -0.121692,-0.5679 0.859102,-1.15692 2.683446,-3.39195 1.832226,-2.24564 2.691328,-3.40256 0.914274,-1.23121 2.636683,-3.77247 1.740904,-2.543977 2.655178,-3.775197 0.173397,-0.23351 0.651025,0.12117 0.35026,0.26009 1.074425,0.74844 0.724166,0.48835 1.074426,0.74845 0.392716,0.291617 1.26243,0.805707 0.877595,0.50348 1.270311,0.79511 0.09552,0.0709 0.03531,0.75075 -0.230254,2.72716 -0.73479,6.15631 -0.179284,1.21713 -0.104986,1.27231 0.159209,0.11822 1.108476,-0.42834 1.017786,-0.59449 2.725058,-1.31918 2.430389,-1.01105 2.802403,-1.1794 0.583033,-0.27513 0.774084,-0.13326 0.392716,0.29163 1.16785,0.93309 0.775133,0.64146 1.178463,0.94097 0.392716,0.29162 1.20421,0.79541 0.82999,0.50107 1.222706,0.79269 0.254735,0.18916 0.07346,0.43328 -0.930038,1.25245 -2.904134,3.68914 -1.974096,2.43669 -2.912015,3.69975 -0.859102,1.15692 -2.479049,3.56019 -1.601451,2.40054 -2.460553,3.55746 z m 28.652679,-6.29082 q 0.48369,2.66666 0.57108,5.74109 0.007,0.48245 -0.31831,0.54143 0.20813,-0.0378 -1.89911,0.19668 -3.00595,0.31682 -4.77504,0.63771 -0.94959,0.17224 -2.83933,0.56875 -1.88974,0.39652 -2.83933,0.56876 -0.40325,0.0731 -0.53429,-0.42709 0.0921,0.3595 -0.13915,-0.91529 l -1.3697,-7.47727 q -0.25718,-1.41788 -0.953526,-4.51622 -0.66211,-2.98362 -0.93817,-4.50557 -0.0519,-0.28617 0.26029,-0.3428 0.54633,-0.0991 1.648446,-0.24526 1.11512,-0.14852 1.66146,-0.24762 0.58536,-0.10618 1.73364,-0.3682 1.14592,-0.27504 1.73128,-0.38121 0.20813,-0.0378 0.25768,0.23542 l 0.0129,0.14544 q 0.22964,2.22904 0.82137,6.67652 0.28072,1.69577 0.45768,2.67137 0.19819,1.09268 0.51448,2.54014 0.11804,0.5026 0.31316,0.46721 1.37886,-0.25011 2.97655,-0.70114 1.81411,-0.51715 3.15999,-1.09718 0.11236,-0.0472 0.19041,-0.0614 0.23414,-0.0425 0.29549,0.29573 z m 9.99976,-15.27062 q 0.16439,0.20709 -0.0634,0.38793 0.25887,-0.20549 -2.71191,1.89957 1.40523,1.85527 1.82443,2.38335 1.01101,1.2736 3.13657,3.7386 2.13592,2.45679 3.13871,3.72003 0.24659,0.31064 -0.064,0.55722 -0.43489,0.34523 -1.35825,1.01069 -0.93158,0.65511 -1.37682,1.00856 -0.42454,0.337 -1.24073,1.05242 -0.81618,0.71543 -1.24072,1.05243 -0.34169,0.27125 -0.58006,-0.029 -1.00279,-1.26325 -2.92127,-3.89264 -1.90811,-2.63762 -2.91912,-3.91122 -0.40276,-0.50737 -1.85795,-2.25546 -0.86188,0.78545 -2.55275,2.39777 -0.22321,0.059 -0.23965,0.0383 -0.0904,-0.1139 -0.66237,-1.19589 -0.617,-1.18126 -0.73603,-1.37373 -0.72513,-0.97727 -1.60943,-2.45273 -0.0347,-0.10749 0.0896,-0.20613 0.0414,-0.0329 0.18211,-0.1108 2.25172,-1.41612 5.27523,-3.81624 0.92154,-0.73154 3.26934,-2.98349 1.16461,-1.127047 1.2578,-1.201017 0.31063,-0.24659 0.43393,-0.0913 0.2959,0.37276 0.84416,1.169727 0.54004,0.78662 0.83594,1.15938 0.27947,0.35206 0.92337,0.97183 0.6439,0.61977 0.92337,0.97182 z M 60.124942,86.732568 q 0.127821,-0.0171 0.14752,0.12644 0.02328,0.16963 0.05281,0.51558 0.02893,0.3416 0.05281,0.51557 0.02328,0.16963 0.08866,0.51521 0.06479,0.34125 0.08807,0.51087 0.0185,0.13483 -0.144577,0.15663 -0.295311,0.0395 -0.893921,0.0928 -0.603018,0.054 -0.898328,0.0935 -0.127821,0.0171 -0.12424,0.0432 0.01134,0.0826 1.187127,0.40828 1.175188,0.32128 1.187127,0.40827 0.01671,0.12178 -1.031926,0.72255 -1.048639,0.600755 -1.036701,0.687745 0.0036,0.026 0.131403,0.009 0.29531,-0.0395 0.891165,-0.14567 0.591447,-0.10561 0.886757,-0.14508 0.163082,-0.0218 0.18099,0.10869 0.02388,0.17397 0.0534,0.51992 0.02953,0.34596 0.0534,0.51993 0.02328,0.16962 0.08807,0.51087 0.06419,0.33688 0.08747,0.50651 0.0197,0.14352 -0.108122,0.1606 -0.480431,0.0642 -1.447261,0.14912 -0.971238,0.0856 -1.451668,0.14972 -0.511284,0.0683 -1.527882,0.24848 -1.021603,0.17638 -1.532887,0.24471 -0.09697,0.0129 -0.123829,-0.18276 -0.0197,-0.14353 -0.07232,-0.42882 -0.05262,-0.28528 -0.07232,-0.42882 -0.02209,-0.16092 -0.102714,-0.48675 -0.08504,-0.32525 -0.107121,-0.48618 -0.0054,-0.0392 0.172446,-0.18249 0.710676,-0.57775 1.654817,-1.253115 0.33516,-0.23968 0.330981,-0.27012 -0.009,-0.0652 -0.363632,-0.164 -0.382317,-0.10393 -0.95802,-0.34146 -0.81459,-0.3429 -0.94255,-0.39224 -0.203257,-0.0747 -0.214001,-0.15299 -0.02209,-0.16093 -0.04982,-0.49383 -0.02774,-0.33291 -0.05042,-0.49818 -0.02209,-0.16092 -0.09151,-0.47054 -0.07443,-0.31338 -0.09652,-0.47431 -0.01433,-0.10438 0.08705,-0.11793 0.520099,-0.0695 1.570674,-0.16561 1.050575,-0.0961 1.575081,-0.1662 0.480431,-0.0642 1.43973,-0.23669 0.954295,-0.17626 1.434725,-0.24046 z m 0.349808,-6.95757 q 0.06221,0.0027 0.05458,0.178034 -0.0082,0.188555 -0.04257,0.569295 -0.03437,0.380742 -0.04257,0.569301 -0.0082,0.18855 -0.0066,0.56203 0.0016,0.37347 -0.0066,0.56203 -0.005,0.114 -0.139034,0.1259 0.0044,1.9e-4 -0.217745,-0.009 -0.177751,-0.008 -0.184998,0.15911 -0.04444,1.0217 0.0057,1.19954 0.0457,0.17766 0.266168,0.22654 0.194,0.0433 0.189422,0.14859 -0.0078,0.17979 -0.04123,0.5386 -0.03341,0.35882 -0.04123,0.53861 -0.0076,0.1754 -0.0055,0.53572 0.0023,0.35594 -0.0053,0.53134 -0.0055,0.12717 -0.116625,0.12246 -0.133313,-0.006 -5.971084,-2.33081 -0.109378,-0.0442 -0.130262,-0.0758 -0.02533,-0.0319 -0.02075,-0.13706 0.0067,-0.15348 0.05964,-0.44996 0.05315,-0.30088 0.05983,-0.45435 0.02689,-0.61829 -0.02464,-0.86648 -0.01549,-0.0534 -0.01453,-0.0753 0.0032,-0.0745 0.158717,-0.16899 0.06856,-0.0411 0.811073,-0.32589 0.570786,-0.22623 1.723972,-0.638663 0.600557,-0.194219 1.816394,-0.511743 1.216028,-0.32191 1.807507,-0.512121 0.04057,-0.01147 0.05834,-0.01071 z m -2.99344,2.8034 q -0.351058,-0.0149 -0.603361,0.36103 0.267617,0.39793 0.569793,0.41073 0.155532,0.007 0.280473,-0.10234 0.120687,-0.11351 0.127362,-0.26698 0.0069,-0.15786 -0.103713,-0.27676 -0.115023,-0.1191 -0.270554,-0.12568 z m 4.252439,-8.75697 q 0.04795,0.0096 0.02403,0.125746 -0.03897,0.189248 -0.133473,0.559948 -0.09361,0.3664 -0.131701,0.551346 -0.0372,0.180648 -0.09329,0.541136 -0.0552,0.356187 -0.09152,0.532533 -0.03012,0.146237 -0.148829,0.171698 -0.212089,0.03809 -0.638853,0.104784 -0.386649,0.07027 -1.168595,0.186661 -0.199828,0.02263 -0.210458,0.07424 -0.008,0.03871 0.135867,0.06756 0.296396,0.05943 0.900703,0.122396 0.605193,0.05865 0.884154,0.114598 0.100251,0.0201 0.08254,0.106126 -0.0062,0.03011 -0.03522,0.104905 -0.128483,0.359407 -0.28261,1.1078 -0.03366,0.163442 -0.08443,0.498124 -0.04988,0.330381 -0.08355,0.493823 -0.02923,0.141936 -0.155635,0.116588 -0.488181,-0.0979 -1.453915,-0.3453 -0.970092,-0.248279 -1.458273,-0.346175 -1.246606,-0.249984 -2.91902,-0.459951 l -0.06191,-0.0079 q -0.08895,-0.0089 -0.08342,-0.101824 -0.0018,0.0086 0.03366,-0.163442 0.09655,-0.468821 0.278348,-1.417687 0.181796,-0.948866 0.279233,-1.421989 0.207274,-1.00646 0.77343,-1.573695 0.66676,-0.65903 1.634405,-0.464986 0.627662,0.125865 0.973144,0.387731 0.346368,0.257565 0.595861,0.809214 0.05284,0.118086 0.122581,0.132071 0.0523,0.01049 1.26055,-0.302583 1.208246,-0.313072 1.256192,-0.303457 z m -4.371936,1.658254 q -0.49254,-0.09877 -0.63958,0.615215 -0.03632,0.176345 0.508528,0.285604 0.06538,0.01311 0.197916,0.03073 0.132534,0.01762 0.197916,0.03073 0.06538,0.01311 0.101698,-0.163234 0.143498,-0.69678 -0.366478,-0.799047 z m 1.368615,-6.899278 q 0.01684,0.0056 0.137391,0.445132 0.121991,0.435306 0.391387,0.52606 0.189419,0.06381 0.855701,-0.06884 0.662073,-0.134066 1.104051,0.01483 0.543001,0.182927 0.8735,0.572532 0.351444,0.410573 0.529311,1.282099 0.146545,0.731119 0.117634,1.412404 -0.0061,0.05825 -0.01611,0.08733 -0.01724,0.04984 -0.125657,0.06434 -0.07464,0.01196 -1.057635,0.177044 -0.928074,0.155761 -0.936492,0.152925 -0.02947,-0.0099 -0.09878,-0.33937 -0.08144,-0.403093 -0.189453,-0.634267 -0.174551,-0.364894 -0.469203,-0.464158 -0.260977,-0.08792 -0.593603,0.004 -0.604681,0.171951 -0.614537,0.17327 -0.408394,0.06648 -0.85879,-0.08525 -0.782933,-0.263755 -1.043548,-1.167796 -0.211224,-0.734357 -0.0387,-1.626975 0.03212,-0.160775 0.0235,-0.135853 0.0072,-0.02077 0.112723,-0.02696 0.517836,-0.02961 1.855119,-0.362885 0.02536,-0.0053 0.04219,3.01e-4 z m 6.094265,-6.280865 q 0.8002,0.431344 1.623354,1.050103 0.127729,0.09886 0.07442,0.195154 0.03412,-0.06162 -0.349992,0.531512 -0.552527,0.842435 -0.842523,1.366279 -0.155659,0.28118 -0.451365,0.851956 -0.295705,0.570777 -0.451364,0.851957 -0.0661,0.119405 -0.224732,0.0489 0.11356,0.05121 -0.268975,-0.154992 l -2.246595,-1.206015 q -0.425472,-0.229349 -1.383614,-0.695818 -0.920879,-0.451386 -1.377579,-0.697567 -0.08588,-0.04629 -0.0347,-0.138733 0.08956,-0.161776 0.284286,-0.476909 0.196861,-0.318985 0.286418,-0.480759 0.09596,-0.173331 0.270118,-0.524556 0.170259,-0.353329 0.266214,-0.52666 0.03412,-0.06162 0.116089,-0.01745 l 0.0408,0.027 q 0.631956,0.40567 1.921096,1.180593 0.503179,0.281239 0.795935,0.439048 0.327887,0.176746 0.773599,0.397 0.156497,0.07435 0.188482,0.01658 0.226026,-0.408288 0.445725,-0.91501 0.248142,-0.576411 0.380848,-1.045007 0.01138,-0.03887 0.02418,-0.06199 0.03838,-0.06933 0.13987,-0.01462 z m 3.493944,-4.448125 q 0.129651,0.09273 0.315402,0.296044 0.262736,0.285479 0.297131,0.32092 0.227614,0.206155 0.644945,0.640145 0.06978,0.07701 -0.01375,0.190731 -0.0261,0.03553 -0.08389,0.09178 -0.545836,0.563644 -1.305418,1.597788 -0.20882,0.2843 -0.609444,0.859651 -0.400623,0.57535 -0.606833,0.856098 -0.08614,0.117274 -0.190578,0.04258 -0.403356,-0.28848 -1.178746,-0.908087 -0.77899,-0.622182 -1.182347,-0.910663 -0.410559,-0.293632 -1.559305,-1.05559 -0.295942,-0.195396 -0.889446,-0.576506 l -0.05303,-0.0325 q -0.08805,-0.05213 -0.01758,-0.148086 0.203599,-0.277193 0.625203,-0.821276 0.424214,-0.547638 0.630424,-0.828385 0.206209,-0.280746 0.609443,-0.859651 0.403234,-0.578904 0.612054,-0.863205 0.146174,-0.19901 0.358557,-0.10674 0.08508,0.03375 0.686051,0.382252 0.59737,0.34593 0.6766,0.402597 0.07203,0.05152 0.01721,0.126143 -0.140953,0.191902 -0.465086,0.550929 -0.324132,0.359027 -0.467695,0.554483 -0.232312,0.316285 -0.262644,0.36506 -0.17839,0.295223 -0.05234,0.385373 0.172867,0.123635 0.458837,-0.175956 0.07867,-0.08467 0.344915,-0.447154 0.219261,-0.298516 0.391439,-0.592761 0.230231,-0.388241 0.180637,-0.320719 0.06787,-0.0924 0.172306,-0.0177 0.100839,0.07212 0.286228,0.253495 0.224376,0.225522 0.286591,0.275439 0.448654,0.391345 0.653933,0.538161 0.07923,0.05666 -0.0017,0.166832 0.02349,-0.03198 -0.270308,0.278269 -0.326115,0.346768 -0.691549,0.844294 -0.237533,0.323392 -0.05746,0.452177 0.08643,0.06182 0.157372,0.0475 0.16213,-0.04124 0.872117,-1.007865 0.09658,-0.131488 0.265519,-0.406368 0.167949,-0.281007 0.264528,-0.412496 0.06526,-0.08885 0.151689,-0.02703 z m 3.375891,-1.221691 q 0.09945,0.08778 0.01345,0.182652 -0.127515,0.14066 -0.398772,0.413547 -0.271606,0.26669 -0.402087,0.410622 -0.121584,0.134118 -0.354458,0.417331 -0.229909,0.279942 -0.351494,0.41406 -0.09786,0.107949 -0.193996,0.02309 -0.404433,-0.357002 -1.190274,-1.109572 -0.785842,-0.752569 -1.19359,-1.112497 -0.341447,-0.301404 -1.050682,-0.868574 -0.709584,-0.573366 -1.044402,-0.868917 -0.07293,-0.06438 -0.0018,-0.142886 0.130481,-0.143933 0.404703,-0.420091 0.277187,-0.27943 0.410634,-0.426632 0.124549,-0.13739 0.360389,-0.423874 0.23584,-0.286484 0.357424,-0.420602 0.0771,-0.08505 0.156663,-0.01482 0.338133,0.298477 0.988058,0.93107 0.649576,0.626396 0.987708,0.924873 0.407748,0.359929 1.252899,1.047075 0.845151,0.687145 1.249584,1.044148 z M 76.59478,51.99522 q 0.04428,0.04925 0.04306,0.173535 0.0021,0.121377 -0.04447,0.162158 -0.09316,0.08157 -0.29128,0.231555 -0.194795,0.147078 -0.284626,0.225728 -0.182987,0.160211 -0.537155,0.493766 -0.354167,0.333554 -0.537155,0.493766 -0.05323,0.0466 -0.105291,0.02178 -0.05206,-0.02483 -0.10707,-0.05295 -0.262872,-0.133639 -0.734404,-0.307558 -0.567168,-0.207537 -0.745509,-0.28023 -0.268776,-0.140204 -0.550485,-0.274952 -0.02807,-0.0047 -0.03139,-0.0019 -0.06321,0.05535 0.08438,0.219498 0.197783,0.219964 0.619214,0.64898 0.418479,0.425733 0.616262,0.645697 0.109223,0.121472 0.0061,0.211773 -0.143063,0.125256 -0.440997,0.362636 -0.297934,0.23738 -0.440998,0.362636 -0.129754,0.113605 -0.380783,0.356859 -0.247702,0.240341 -0.377457,0.353945 -0.109793,0.09612 -0.1954,9.19e-4 -0.321766,-0.357852 -0.932027,-1.102684 -0.613212,-0.748115 -0.934978,-1.105967 -0.34243,-0.380833 -1.060559,-1.113369 -0.717755,-0.738732 -1.060184,-1.119565 -0.06494,-0.07223 0.0149,-0.142137 0.139736,-0.122343 0.431016,-0.353898 0.294607,-0.234467 0.434343,-0.35681 0.143063,-0.125256 0.414055,-0.385987 0.268039,-0.264015 0.407775,-0.386358 0.05323,-0.0466 0.112272,0.01905 0.206639,0.229814 0.606232,0.707287 0.396642,0.474191 0.603281,0.704003 0.118079,0.131322 0.167186,0.152871 0.08013,0.02959 0.196574,-0.07236 0.429189,-0.375769 -0.152157,-1.233931 -0.35264,-0.524451 -0.435233,-1.085837 -0.02497,-0.160033 0.760213,-0.847485 0.855051,-0.748624 0.940658,-0.653416 0.01476,0.01642 0.02469,0.06053 0.04624,0.329175 0.04919,0.332458 0.0342,0.163686 0.128991,0.315398 0.323822,0.532079 0.361072,0.593347 0.187329,0.3406 0.267214,0.634449 0.09792,0.360203 0.06684,0.821618 -0.02283,0.325103 0.02735,0.380915 0.01771,0.0197 0.602169,0.305981 0.379172,0.190238 1.156029,0.525169 0.08345,0.02668 1.20533,0.335315 0.01846,0.0073 0.03322,0.02372 z m 2.265995,-6.298226 q 0.0517,0.07676 -0.0261,0.127778 -0.02964,0.01943 -0.10865,0.06071 -1.019692,0.484211 -1.442004,0.761138 -0.303769,0.199192 -0.291412,0.185821 -0.202552,0.159169 -0.131162,0.265179 0.113241,0.168152 0.488542,-0.01998 0.0716,-0.03641 0.475394,-0.301195 0.311177,-0.204052 0.526085,-0.376594 0.306301,-0.243011 0.228507,-0.191998 0.100021,-0.06559 0.18372,0.05869 0.07878,0.116976 0.220267,0.366729 0.145195,0.247324 0.223971,0.364299 0.07878,0.116976 0.241274,0.342414 0.162499,0.225438 0.238813,0.338758 0.05662,0.08407 -0.05822,0.159381 0.03334,-0.02187 -0.351832,0.167472 -0.430845,0.208746 -0.949473,0.548832 -0.337109,0.221055 -0.214022,0.40383 0.384032,0.570256 0.74476,1.050399 0.04309,0.05606 0.198253,0.23888 0.125597,0.15478 0.189602,0.249823 0.05662,0.08407 -0.07674,0.171527 -0.04075,0.02672 -0.114815,0.05948 -0.351832,0.167474 -0.918619,0.539138 -0.140771,0.09231 -0.416169,0.293977 -0.271695,0.19924 -0.412465,0.291549 -0.122249,0.08017 -0.193639,-0.02584 0.0517,0.07676 -0.414697,-0.687163 -0.796195,-1.301237 -1.160533,-1.84225 -0.243712,-0.361894 -1.730937,-2.348264 l -0.03571,-0.0451 q -0.06279,-0.08531 0.03353,-0.148462 0.292655,-0.191905 0.887812,-0.561093 0.598861,-0.371618 0.89522,-0.565953 0.307473,-0.201621 0.887954,-0.656042 0.584186,-0.45685 0.891659,-0.658473 0.225973,-0.14818 0.419327,0.06757 0.127987,0.205911 0.41362,0.582473 0.597341,0.641171 0.658884,0.73256 z m 6.44837,-0.403907 q 0.07129,0.141481 0.140309,0.406616 0.09861,0.373156 0.112431,0.420294 0.104775,0.286806 0.270561,0.862282 0.02563,0.100162 -0.101815,0.162691 -0.03983,0.01954 -0.117456,0.04292 -0.748484,0.249593 -1.907455,0.818225 -0.318617,0.156325 -0.943948,0.48274 -0.625331,0.326416 -0.939965,0.480787 -0.13143,0.06449 -0.188857,-0.04949 -0.221789,-0.440164 -0.617573,-1.34394 -0.397764,-0.907707 -0.619552,-1.347872 -0.225749,-0.448024 -0.885417,-1.64877 -0.170369,-0.308542 -0.51709,-0.917785 l -0.03171,-0.05307 q -0.05351,-0.08648 0.05402,-0.139242 0.310652,-0.152417 0.939877,-0.44153 0.633207,-0.291067 0.947842,-0.445438 0.314635,-0.154371 0.943948,-0.48274 0.629314,-0.32837 0.947931,-0.484695 0.223032,-0.109428 0.367835,0.06951 0.05952,0.06883 0.428179,0.652605 0.366679,0.579845 0.410245,0.666306 0.03961,0.0786 -0.04403,0.119635 -0.215067,0.10552 -0.670965,0.275282 -0.455899,0.169762 -0.674949,0.277235 -0.354461,0.173912 -0.404256,0.203245 -0.296791,0.179926 -0.227482,0.317478 0.09505,0.188642 0.489208,0.05407 0.109491,-0.03902 0.515728,-0.238329 0.334549,-0.164141 0.625376,-0.346045 0.386434,-0.238613 0.310763,-0.201487 0.10355,-0.05081 0.160978,0.06316 0.05545,0.110041 0.134457,0.355568 0.0928,0.302482 0.124467,0.375177 0.213578,0.552028 0.326453,0.776039 0.04357,0.08646 -0.0799,0.147037 0.03585,-0.01758 -0.370259,0.122843 -0.451894,0.157994 -1.009474,0.431562 -0.362427,0.177819 -0.263415,0.374321 0.04753,0.09432 0.117102,0.114103 0.163024,0.03766 1.246323,-0.493851 0.147361,-0.0723 0.426217,-0.238527 0.28086,-0.17211 0.42822,-0.244411 0.09957,-0.04886 0.147094,0.04547 z m 5.029024,-1.999695 q 0.302558,0.848772 0.495159,1.852026 0.02796,0.157791 -0.07694,0.194201 0.06713,-0.0233 -0.620437,0.164173 -0.981745,0.261667 -1.55238,0.459734 -0.306297,0.106315 -0.912988,0.335507 -0.606691,0.229191 -0.912988,0.335506 -0.130071,0.04514 -0.200219,-0.111957 0.04972,0.113018 -0.09492,-0.292737 L 85.609621,43.850599 Q 85.448748,43.3993 85.052575,42.42018 q -0.378694,-0.943315 -0.551374,-1.427735 -0.03247,-0.09109 0.06823,-0.126041 0.176226,-0.06117 0.534581,-0.166942 0.362551,-0.10723 0.538776,-0.168398 0.188814,-0.06553 0.556341,-0.211715 0.366051,-0.150319 0.554864,-0.215856 0.06713,-0.0233 0.09813,0.06365 l 0.01204,0.047 q 0.19488,0.718652 0.628074,2.145534 0.183475,0.541158 0.294167,0.851685 0.123975,0.34779 0.306058,0.805683 0.06595,0.158562 0.12889,0.136715 0.44476,-0.154374 0.951531,-0.386105 0.575148,-0.26477 0.991402,-0.525567 0.03481,-0.02138 0.05999,-0.03013 0.07553,-0.02622 0.113899,0.08144 z m 7.308835,0.401898 q 0.0124,0.06021 -0.161923,0.09521 -0.187418,0.03763 -0.570159,0.09656 -0.382742,0.05893 -0.570159,0.09656 -0.187418,0.03763 -0.554348,0.129213 -0.36693,0.09158 -0.554348,0.129213 -0.113323,0.02276 -0.157361,-0.102774 8.87e-4,0.0043 -0.04345,-0.210744 -0.03547,-0.172037 -0.201098,-0.138784 -1.015543,0.203892 -1.178357,0.294807 -0.1637,0.08662 -0.158587,0.309535 0.0042,0.19624 -0.100455,0.217242 -0.1787,0.03588 -0.539649,0.09043 -0.360949,0.05455 -0.53965,0.09043 -0.174342,0.035 -0.528196,0.123963 -0.349496,0.08808 -0.523838,0.123087 -0.126398,0.02538 -0.148568,-0.08215 -0.02661,-0.129027 0.851995,-6.280344 0.01706,-0.115399 0.04313,-0.143029 0.02519,-0.03193 0.129794,-0.05293 0.15255,-0.03063 0.456913,-0.05142 0.308721,-0.02167 0.461271,-0.0523 0.614556,-0.123385 0.84622,-0.232602 0.04875,-0.02771 0.07055,-0.03208 0.0741,-0.01488 0.204494,0.111228 0.05689,0.05576 0.516139,0.698105 0.360175,0.492035 1.043959,1.496884 0.335872,0.528266 0.941428,1.616004 0.609915,1.086863 0.939653,1.607403 0.0211,0.03609 0.0246,0.05329 z m -3.479141,-2.190408 q -0.07006,-0.339772 -0.500611,-0.490714 -0.326797,0.352265 -0.266495,0.644726 0.03104,0.150533 0.168305,0.243905 0.140738,0.0882 0.293287,0.05757 0.156908,-0.03151 0.247173,-0.166078 0.08938,-0.138876 0.05834,-0.289407 z m 10.092567,1.711425 q 0.006,0.131541 -0.14959,0.13837 -0.22217,0.0098 -0.65655,-0.04587 -0.4479,-0.05941 -0.65694,-0.05463 -0.84671,0.476513 -1.60654,0.509875 -1.355246,0.0595 -2.371076,-0.844859 -1.01158,-0.908945 -1.07168,-2.24189 -0.0615,-1.363638 0.85134,-2.348291 0.91708,-0.989234 2.298996,-1.049911 0.65763,-0.02887 1.37275,0.229689 0.77831,0.277755 1.15169,0.757813 0.0898,0.114678 0.0935,0.197988 0.006,0.13154 -0.46298,0.692513 -0.43938,0.524529 -0.60349,0.637175 -0.0863,0.0609 -0.17516,0.0648 -0.0755,0.0034 -0.42254,-0.187935 -0.34275,-0.195832 -0.7471,-0.178078 -0.42657,0.01873 -0.71045,0.338728 -0.27962,0.31542 -0.26044,0.740735 0.0192,0.425315 0.34485,0.736125 0.33011,0.310614 0.75669,0.291884 0.28882,-0.01268 0.51514,-0.128059 -0.0138,-0.109227 -0.099,-0.615119 -0.0616,-0.379517 -0.0721,-0.611905 -0.002,-0.04823 0.0138,-0.08847 0.0255,-0.02748 0.0921,-0.0304 0.0311,-0.0014 0.24114,0.01577 0.31262,0.02142 0.87694,-0.0034 0.19551,-0.0086 0.58575,-0.04329 0.39023,-0.03471 0.58574,-0.04329 0.12886,-0.0056 0.13361,0.09958 0.0107,0.236772 -0.0124,0.71227 -0.0186,0.475302 -0.008,0.712075 0.0125,0.276235 0.0866,0.835329 0.074,0.554709 0.0853,0.804636 z m 7.99903,-3.202351 q -0.0129,0.08685 -0.10973,0.07282 0.11001,0.01594 -1.09049,-0.224491 -0.13129,0.761728 -0.16423,0.983196 -0.0795,0.534126 -0.19436,1.608753 -0.1105,1.075265 -0.1893,1.605049 -0.0194,0.130275 -0.1514,0.111152 -0.18483,-0.02677 -0.56071,-0.09896 -0.37523,-0.07653 -0.56446,-0.103938 -0.18043,-0.02613 -0.54387,-0.06103 -0.36344,-0.0349 -0.54387,-0.06103 -0.14522,-0.02104 -0.12649,-0.146967 0.0788,-0.529784 0.28172,-1.591663 0.20732,-1.061242 0.28677,-1.595368 0.0317,-0.212782 0.12515,-0.96224 -0.39113,-0.03004 -1.17599,-0.07274 -0.0659,-0.0406 -0.0646,-0.04928 0.007,-0.04777 0.1407,-0.432098 0.14756,-0.417795 0.16735,-0.490343 0.0726,-0.397597 0.23077,-0.946943 0.0184,-0.03283 0.0712,-0.02518 0.0176,0.0026 0.0691,0.01889 0.86593,0.223017 2.15094,0.409143 0.39166,0.05673 1.48469,0.11302 0.54464,0.02566 0.58424,0.03139 0.13202,0.01912 0.12233,0.08426 -0.0233,0.15633 -0.0924,0.470144 -0.0685,0.309473 -0.0918,0.465802 -0.022,0.147645 -0.0256,0.444329 -0.004,0.296684 -0.0256,0.444329 z m 7.37675,4.780072 q -0.0467,0.151144 -0.18107,0.39062 -0.18678,0.333842 -0.21084,0.381665 -0.12775,0.27818 -0.40358,0.810072 -0.0511,0.09017 -0.18724,0.04923 -0.0468,-0.01407 -0.11524,-0.04841 -0.67943,-0.314398 -1.0581,-0.428251 -0.34038,-0.10234 -1.02207,-0.288947 -0.68169,-0.186607 -1.02207,-0.288948 -0.13615,-0.04093 -0.0986,-0.162691 0.0376,-0.121755 0.10703,-0.316524 0.0957,-0.264864 0.11684,-0.318164 -0.32149,-0.13337 -0.43637,-0.16791 -0.38718,-0.116411 -0.73368,-0.183884 -0.0834,-0.01591 -0.1073,-0.01391 -0.0405,0.01076 -0.0898,0.06478 -0.008,0.01132 -0.392,0.50155 -0.0639,0.08633 -0.17873,0.05179 -0.11488,-0.03454 -0.34926,-0.118773 -0.23437,-0.08423 -0.35351,-0.120052 -0.1404,-0.04222 -0.4251,-0.114051 -0.28045,-0.07055 -0.42086,-0.112771 -0.15742,-0.04734 -0.12242,-0.160691 0.0311,-0.100762 0.11036,-0.297172 0.0805,-0.200608 0.11166,-0.30137 0.0402,-0.130152 0.10484,-0.399772 0.0647,-0.26962 0.10484,-0.399773 0.0182,-0.05878 0.75622,-0.882985 0.43066,-0.476161 0.85707,-0.953604 l 1.10212,-1.265338 q 0.19174,-0.199294 0.51729,-0.606117 0.0931,-0.150948 0.20373,-0.117686 0.0383,0.01151 1.4377,0.52403 0.28414,0.103783 1.95625,0.606529 0.20423,0.06141 0.61787,0.167418 0.41789,0.107294 0.62212,0.168698 0.23827,0.07164 0.22321,0.301111 -0.0559,0.226355 -0.14267,0.672868 -0.0744,0.541995 -0.1703,0.852682 -0.0259,0.08396 -0.11528,0.0571 -0.14891,-0.04477 -0.43674,-0.181783 -0.28357,-0.135731 -0.43674,-0.181783 -0.62545,-0.188051 -0.68119,-0.0075 -0.0687,0.222518 0.22892,0.357888 0.009,0.0026 0.4893,0.147114 0.0936,0.02814 0.28822,0.04536 0.19462,0.01722 0.28397,0.04409 0.11062,0.03326 0.073,0.155016 -0.0363,0.117556 -0.14978,0.349554 -0.13885,0.284018 -0.1707,0.357033 -0.22477,0.547242 -0.29866,0.786555 -0.0285,0.09236 -0.16468,0.05143 -0.12764,-0.03838 -0.36311,-0.164234 -0.22992,-0.128777 -0.35756,-0.167155 -0.38293,-0.115132 -0.44775,0.09479 -0.0609,0.197328 0.17713,0.314788 0.057,0.02631 0.40587,0.131204 0.14466,0.0435 0.4375,0.104014 0.29414,0.05633 0.43455,0.09854 0.10637,0.03198 0.0753,0.132745 z m -2.9197,-3.690441 q 0.0752,-0.243511 0.0114,-0.2627 -0.051,-0.01535 -0.17358,0.140517 -1.12067,1.415761 -1.18419,1.621486 -0.0363,0.117556 0.1424,0.171285 0.37867,0.113853 0.63472,0.112838 0.17388,-0.502897 0.23352,-0.696026 z m 8.35162,8.081582 q -0.03,0.05882 -0.14742,0.10372 -0.11348,0.04687 -0.16912,0.01927 -0.11127,-0.05519 -0.32583,-0.181268 -0.21058,-0.124101 -0.31788,-0.177324 -0.21857,-0.108417 -0.6637,-0.309564 -0.44514,-0.201147 -0.66371,-0.309563 -0.0636,-0.03154 -0.0595,-0.08845 0.004,-0.05692 0.0102,-0.117749 0.0285,-0.29044 0.0176,-0.78706 -0.0146,-0.596733 -0.0122,-0.787123 0.0325,-0.298283 0.055,-0.606401 -0.006,-0.02749 -0.01,-0.02946 -0.0755,-0.03745 -0.17539,0.15862 -0.13384,0.262738 -0.38167,0.807885 -0.24584,0.541224 -0.37968,0.803962 -0.0739,0.145094 -0.19711,0.08398 -0.17088,-0.08476 -0.50466,-0.269972 -0.33377,-0.185209 -0.50465,-0.269971 -0.15499,-0.07688 -0.47693,-0.216917 -0.31797,-0.138069 -0.47295,-0.214945 -0.13115,-0.06505 -0.0732,-0.178773 0.21774,-0.427439 0.69296,-1.262606 0.47722,-0.839089 0.69496,-1.266529 0.23173,-0.454889 0.65544,-1.384381 0.42968,-0.931442 0.66141,-1.386331 0.044,-0.08627 0.13932,-0.03896 0.16691,0.08279 0.49274,0.264058 0.3298,0.183238 0.49671,0.266029 0.17088,0.08476 0.51667,0.236629 0.34778,0.147946 0.51469,0.230736 0.0636,0.03154 0.0236,0.109969 -0.13984,0.274502 -0.44137,0.817572 -0.29954,0.539149 -0.43938,0.813652 -0.0799,0.156858 -0.082,0.209851 0.002,0.08441 0.14089,0.153397 0.51265,0.254286 1.10527,-0.596336 0.36314,-0.517423 0.86104,-0.800986 0.14141,-0.08214 1.07928,0.383064 1.02133,0.5066 0.9634,0.620323 -0.01,0.01961 -0.0478,0.04505 -0.29276,0.164262 -0.29476,0.168184 -0.14143,0.09196 -0.24915,0.235014 -0.381,0.493833 -0.42488,0.550662 -0.25128,0.297822 -0.49833,0.479845 -0.30283,0.223125 -0.74871,0.365473 -0.3145,0.09944 -0.34846,0.166108 -0.012,0.02352 -0.0651,0.665263 -0.0387,0.418003 -0.0664,1.254113 0.006,0.08638 0.13061,1.229011 -4e-5,0.01963 -0.01,0.03923 z m 8.99733,-0.764471 q -0.2978,0.40496 -0.93823,1.193627 -0.63782,0.785116 -0.93824,1.193628 l -1.74439,2.357107 q -0.0601,0.0817 -0.18608,-0.0085 -0.1188,-0.08507 -0.34594,-0.269408 -0.22354,-0.181763 -0.34234,-0.26683 -0.1224,-0.08764 -0.38124,-0.251301 -0.25884,-0.163656 -0.38484,-0.253879 -0.0612,-0.04382 -0.0614,-0.222913 0.005,-2.718971 -0.10337,-2.796304 -0.0504,-0.03609 -0.12615,0.06692 -0.20376,0.277077 -0.5923,0.850251 -0.38592,0.569622 -0.58968,0.846698 -0.0967,0.131435 -0.20826,0.05153 -0.12959,-0.0928 -0.38193,-0.295186 -0.24875,-0.199808 -0.37834,-0.292608 -0.1404,-0.100533 -0.43524,-0.289967 -0.29124,-0.186857 -0.43164,-0.28739 -0.11879,-0.08507 -0.043,-0.188082 0.28475,-0.387198 0.89023,-1.135816 0.6081,-0.752171 0.89284,-1.139369 0.29781,-0.40496 0.8548,-1.237103 0.56321,-0.83312 0.85841,-1.234526 0.0575,-0.07815 0.20506,0.02754 0.162,0.116001 0.74639,0.442276 0.0772,0.04445 0.4296,0.215432 0.26894,0.127506 0.41293,0.230616 0.0504,0.03609 0.0353,0.258437 -0.009,0.139733 -0.0186,1.228491 -0.018,0.599896 0.0179,1.791544 0.0543,9.11e-4 0.2058,-0.205121 0.20115,-0.273525 0.55926,-0.857639 0.36073,-0.587666 0.56188,-0.86119 0.10188,-0.138539 0.17387,-0.08698 0.144,0.103111 0.42415,0.319988 0.28016,0.216878 0.42415,0.319989 0.1548,0.110844 0.47223,0.321876 0.31742,0.21103 0.47222,0.321874 0.0648,0.0464 -0.006,0.142312 z m -1.17165,7.045016 q -0.0911,0.09618 -0.18535,0.0093 -0.13971,-0.128894 -0.41021,-0.402505 -0.26422,-0.27382 -0.40718,-0.405712 -0.1332,-0.1229 -0.41502,-0.358873 -0.27856,-0.232976 -0.41177,-0.355875 -0.10721,-0.09892 -0.0191,-0.191892 0.37061,-0.391128 1.15038,-1.14982 0.77977,-0.758692 1.15341,-1.153025 0.31289,-0.330215 0.90314,-1.017413 0.59653,-0.687406 0.90334,-1.011209 0.0668,-0.07053 0.1448,0.0014 0.14296,0.131893 0.41671,0.408502 0.27701,0.279606 0.42321,0.414496 0.13645,0.125897 0.42152,0.364867 0.28506,0.238971 0.41826,0.36187 0.0845,0.07794 0.0116,0.15488 -0.30985,0.327009 -0.96507,0.954256 -0.64894,0.627038 -0.95879,0.954047 -0.37364,0.394334 -1.08843,1.212977 -0.7148,0.818642 -1.0854,1.20977 z m 6.34199,0.221075 q -0.0133,0.01166 -0.46022,-0.101415 -0.44397,-0.109797 -0.65676,0.07678 -0.14963,0.131187 -0.36103,0.768637 -0.20809,0.634535 -0.55721,0.940639 -0.42892,0.376069 -0.93535,0.467823 -0.53524,0.0994 -1.39139,-0.177409 -0.71691,-0.234504 -1.30341,-0.595096 -0.0484,-0.03391 -0.0691,-0.05688 -0.0354,-0.03937 0.005,-0.139598 0.0262,-0.06997 0.36514,-0.995348 0.32005,-0.873618 0.3267,-0.879448 0.0233,-0.02041 0.34793,0.08245 0.39558,0.12874 0.65266,0.14993 0.40778,0.02997 0.64053,-0.174102 0.20614,-0.180747 0.28895,-0.511686 0.14639,-0.60393 0.15009,-0.613042 0.14265,-0.383415 0.49842,-0.695348 0.61844,-0.54224 1.54405,-0.320453 0.75164,0.180566 1.4537,0.768621 0.12594,0.106819 0.10821,0.08713 0.0148,0.0164 -0.0318,0.110069 -0.2291,0.459212 -0.5943,1.771666 -0.008,0.02442 -0.0211,0.03608 z m 0.59742,8.370064 q -0.0553,0.03682 -0.18001,0.01922 -0.1222,-0.01395 -0.15702,-0.0649 -0.0696,-0.101884 -0.19418,-0.315467 -0.12204,-0.209944 -0.1892,-0.308188 -0.13679,-0.200127 -0.42514,-0.590565 -0.28834,-0.390436 -0.42513,-0.590563 -0.0398,-0.05822 -0.008,-0.105864 0.0318,-0.04764 0.0673,-0.09774 0.16893,-0.239495 0.40585,-0.677774 0.28332,-0.527392 0.37987,-0.692244 0.1763,-0.244403 0.34883,-0.502177 0.008,-0.02683 0.006,-0.03046 -0.0472,-0.06913 -0.23162,0.05358 -0.24706,0.164438 -0.73363,0.520054 -0.48289,0.353162 -0.72995,0.517601 -0.13643,0.09081 -0.21353,-0.02198 -0.10695,-0.156463 -0.3061,-0.479207 -0.19915,-0.322743 -0.3061,-0.479206 -0.097,-0.141908 -0.30824,-0.419547 -0.20875,-0.273999 -0.30575,-0.415908 -0.0821,-0.120076 0.0249,-0.19125 0.40193,-0.267519 1.23067,-0.766169 0.83242,-0.501104 1.23435,-0.768622 0.42774,-0.284699 1.25836,-0.890483 0.83679,-0.6046 1.26454,-0.889297 0.0811,-0.054 0.14081,0.03333 0.10447,0.152824 0.29864,0.468291 0.19666,0.319104 0.30112,0.471928 0.10695,0.156463 0.33311,0.455933 0.22985,0.297016 0.33432,0.44984 0.0398,0.05822 -0.034,0.107305 -0.25812,0.171801 -0.79049,0.499664 -0.52867,0.325409 -0.7868,0.497209 -0.14749,0.09817 -0.17562,0.143363 -0.0403,0.07447 0.0468,0.201825 0.32085,0.469389 1.25961,0.01397 0.57337,-0.275735 1.1482,-0.282454 0.16406,-0.0034 0.75103,0.855417 0.63921,0.93514 0.53228,1.006315 -0.0184,0.01228 -0.0641,0.01616 -0.33677,0.0018 -0.34046,0.0042 -0.16894,0.01186 -0.33385,0.08456 -0.57723,0.246543 -0.64369,0.274896 -0.36686,0.138296 -0.67259,0.177663 -0.37476,0.04825 -0.83417,-0.04302 -0.32356,-0.06523 -0.38625,-0.02351 -0.0221,0.01472 -0.38682,0.548637 -0.24113,0.345787 -0.68009,1.061474 -0.0378,0.07811 -0.49587,1.134747 -0.01,0.01709 -0.0282,0.02937 z m 5.53782,5.098676 q -1.2475,0.558606 -2.52932,0.08668 -1.27592,-0.46974 -1.84201,-1.700747 -0.56793,-1.235003 -0.0879,-2.495866 0.48598,-1.258679 1.73349,-1.817284 1.25156,-0.560418 2.53153,-0.09249 1.28587,0.470111 1.8538,1.705114 0.56609,1.231007 0.0761,2.4915 -0.48414,1.262675 -1.7357,1.823093 z m -0.94103,-2.046348 q 0.39288,-0.175924 0.54921,-0.56885 0.16222,-0.390742 -0.0142,-0.774433 -0.18012,-0.391684 -0.5809,-0.530329 -0.40078,-0.138645 -0.79772,0.0391 -0.38478,0.172296 -0.54111,0.565222 -0.15449,0.396923 0.0201,0.776616 0.17645,0.38369 0.57318,0.524149 0.40261,0.142642 0.79145,-0.03147 z m 4.10528,-0.801998 q -0.0405,0.01814 -0.12478,-0.01642 -0.51963,-0.205918 -1.19359,-0.853632 -0.75857,-0.725499 -1.00965,-1.23964 l -0.0224,-0.03816 q -0.0478,-0.103916 0.0616,-0.152885 0.0486,-0.02177 0.15537,-0.05511 0.10678,-0.03335 0.15538,-0.05511 0.0648,-0.02902 0.18339,-0.111036 0.12042,-0.07802 0.18523,-0.107039 0.0688,-0.03084 0.15163,0.04295 0.37158,0.330053 0.79434,0.622726 0.31535,0.186538 0.93131,0.580675 0.0331,0.01891 0.0868,0.07197 0.003,0.03742 -0.008,0.09989 -0.0745,0.17794 -0.18404,0.545106 -0.0288,0.1816 -0.0964,0.544434 -0.0258,0.103143 -0.0663,0.121279 z m -2.64896,8.684477 q -0.87788,0.243136 -1.9049,0.368022 -0.16138,0.01734 -0.19142,-0.0883 0.0192,0.06761 -0.12598,-0.621552 -0.20124,-0.983631 -0.3647,-1.558332 -0.0877,-0.308479 -0.28035,-0.920692 -0.19261,-0.612214 -0.28035,-0.920693 -0.0373,-0.130998 0.12615,-0.18993 -0.11751,0.04166 0.30217,-0.07457 l 2.46116,-0.686194 q 0.46678,-0.129277 1.48254,-0.456182 0.97841,-0.312005 1.47945,-0.450771 0.0942,-0.02609 0.12306,0.07533 0.0505,0.177481 0.13431,0.537188 0.085,0.363932 0.13552,0.541413 0.0541,0.190158 0.17818,0.561505 0.12839,0.37016 0.18247,0.560318 0.0192,0.06761 -0.0707,0.09252 l -0.0483,0.0088 q -0.73935,0.145505 -2.21031,0.479957 -0.55911,0.145733 -0.88029,0.234685 -0.35972,0.09963 -0.83454,0.249366 -0.16461,0.05471 -0.14658,0.118092 0.1274,0.447929 0.32903,0.961913 0.23063,0.583451 0.4675,1.01018 0.0194,0.03566 0.0266,0.06101 0.0216,0.07606 -0.0897,0.106901 z m -0.93874,7.180958 q -0.0618,0.008 -0.0842,-0.16642 -0.0241,-0.18722 -0.0553,-0.56823 -0.0311,-0.38102 -0.0552,-0.568237 -0.0241,-0.187223 -0.0894,-0.5551 -0.0653,-0.367877 -0.0894,-0.555099 -0.0146,-0.113205 0.11555,-0.147221 -0.004,5.54e-4 0.2162,-0.02712 0.1765,-0.02213 0.15519,-0.187586 -0.13065,-1.014483 -0.21044,-1.18145 -0.0754,-0.167521 -0.30105,-0.17904 -0.19863,-0.01049 -0.21209,-0.114982 -0.023,-0.178514 -0.0513,-0.537756 -0.0283,-0.359241 -0.0513,-0.537756 -0.0224,-0.17416 -0.0861,-0.528975 -0.0631,-0.350461 -0.0855,-0.524622 -0.0163,-0.126266 0.094,-0.140099 0.13237,-0.0166 6.2837,1.304708 0.11536,0.02535 0.14134,0.05307 0.0304,0.02716 0.0439,0.131654 0.0196,0.152391 0.018,0.453443 -0.001,0.305407 0.0186,0.457797 0.0791,0.613915 0.17224,0.849992 0.0244,0.05003 0.0272,0.07181 0.01,0.07402 -0.12759,0.192973 -0.0606,0.05183 -0.74383,0.456075 -0.524,0.317897 -1.59027,0.916165 -0.55881,0.291293 -1.70305,0.806425 -1.14367,0.51949 -1.69422,0.80532 -0.038,0.0181 -0.0557,0.0202 z m 2.47197,-3.261023 q 0.34857,-0.04371 0.53308,-0.456191 -0.33173,-0.34774 -0.63177,-0.310114 -0.15444,0.01937 -0.25899,0.147511 -0.0996,0.131944 -0.08,0.284334 0.0202,0.156744 0.14949,0.255563 0.13371,0.09826 0.28815,0.07889 z m 3.31373,10.091243 q -0.5066,-0.0211 -1.52662,-0.11205 -1.01558,-0.0907 -1.52663,-0.11206 l -2.95481,-0.13214 q -0.10221,-0.004 -0.0956,-0.15775 0.006,-0.14471 0.0364,-0.43338 0.03,-0.28429 0.0362,-0.429 0.006,-0.14909 0.002,-0.4524 -0.005,-0.30332 0.002,-0.4568 0.003,-0.0745 0.15436,-0.17366 2.29907,-1.49866 2.30471,-1.63022 0.003,-0.0614 -0.12624,-0.0668 -0.34662,-0.0145 -1.04544,-0.0173 -0.69437,-0.003 -1.04099,-0.0171 -0.16443,-0.007 -0.1586,-0.1428 0.007,-0.15786 0.0383,-0.47723 0.0313,-0.31499 0.0381,-0.47285 0.007,-0.17102 0.004,-0.51819 -0.003,-0.34277 0.004,-0.5138 0.006,-0.1447 0.13508,-0.13932 0.48438,0.0202 1.45127,0.10452 0.97133,0.0845 1.45571,0.10469 0.5066,0.0211 1.51724,0.0194 1.0149,0.003 1.51706,0.0238 0.0978,0.004 0.0901,0.18387 -0.008,0.19733 0.0389,0.85825 0.005,0.0881 0.0554,0.47236 0.0409,0.29164 0.0334,0.46705 -0.003,0.0614 -0.1988,0.17181 -0.12318,0.0696 -1.04792,0.66352 -0.51663,0.31669 -1.50328,1.00473 0.0292,0.0451 0.28698,0.0559 0.34218,0.0143 1.03342,-0.014 0.69569,-0.028 1.03787,-0.0138 0.17331,0.007 0.16955,0.0949 -0.008,0.17541 -0.0359,0.52565 -0.0284,0.35026 -0.0359,0.52566 -0.008,0.18856 -0.0109,0.56624 -0.003,0.37767 -0.0109,0.56623 -0.003,0.0789 -0.12337,0.0739 z m -2.36386,4.811835 q -0.0175,-0.003 -0.20201,-0.42047 -0.18531,-0.41296 -0.46527,-0.46379 -0.19685,-0.0357 -0.83625,0.19182 -0.63502,0.22834 -1.09433,0.14495 -0.56431,-0.10243 -0.94909,-0.44005 -0.40862,-0.35532 -0.71398,-1.19173 -0.25352,-0.702035 -0.32609,-1.380145 -0.003,-0.0585 0.003,-0.0887 0.01,-0.0518 0.11474,-0.0818 0.0721,-0.0226 1.01993,-0.32805 0.89493,-0.28827 0.90368,-0.28668 0.0306,0.006 0.14811,0.32142 0.14041,0.38698 0.28159,0.60004 0.22685,0.33571 0.53306,0.39131 0.27122,0.0492 0.58659,-0.0899 0.57262,-0.25752 0.58218,-0.26025 0.39411,-0.12481 0.86218,-0.0399 0.81364,0.14771 1.20569,1.004305 0.31798,0.69589 0.27986,1.60382 -0.008,0.16369 -0.003,0.13779 -0.004,0.0216 -0.10751,0.0429 -0.50785,0.10417 -1.78121,0.62719 -0.0243,0.009 -0.0418,0.006 z M 76.811591,119.42366 a 41.305828,42.265129 37.429156 0 0 58.394429,-8.3349 41.305828,42.265129 37.429156 0 0 -6.77816,-58.605543 41.305828,42.265129 37.429156 0 0 -58.444255,7.904006 41.305828,42.265129 37.429156 0 0 6.348448,58.663657" />
  </g>
</svg>
